<?xml version="1.0" encoding="utf-8"?>
<!-- Generator: Adobe Illustrator 16.0.0, SVG Export Plug-In . SVG Version: 6.00 Build 0)  -->
<!DOCTYPE svg PUBLIC "-//W3C//DTD SVG 1.1//EN" "http://www.w3.org/Graphics/SVG/1.1/DTD/svg11.dtd">
<svg version="1.1" id="Camada_1" xmlns="http://www.w3.org/2000/svg" xmlns:xlink="http://www.w3.org/1999/xlink" x="0px" y="0px"
	 width="317px" height="76px" viewBox="0 0 317 76" enable-background="new 0 0 317 76" xml:space="preserve">
<path fill="#282C37" d="M71.071,32.252c0.056-0.697-0.216-1.366-0.173-2.06c-0.299-1.297-0.802-2.518-1.378-3.712
	c-0.194-0.284-0.361-0.581-0.472-0.907c-0.386-0.846-0.998-1.523-1.638-2.177c-1.015-0.899-1.958-1.885-3.14-2.581
	c-0.236-0.159-0.472-0.319-0.709-0.479c-0.378-0.28-0.674-0.656-1.069-0.916c-0.258-0.176-0.527-0.333-0.781-0.511
	c-0.166-0.119-0.335-0.235-0.515-0.335c-0.158-0.091-0.32-0.173-0.482-0.271c-0.028-0.03-0.068-0.066-0.061-0.089
	c0.008-0.03,0.052-0.069,0.082-0.071c1.151-0.056,2.287,0.007,3.383,0.404c1.049,0.212,2.045,0.596,3.055,0.938
	c0.459,0.109,0.882,0.329,1.346,0.415c0.198-0.013,0.329-0.121,0.412-0.294c0.061-0.173,0.073-0.349,0.042-0.528
	c-0.049-0.235-0.165-0.434-0.31-0.62c-0.299-0.34-0.518-0.74-0.813-1.082c-1.751-1.716-3.754-3.056-6.004-4.028
	c-0.435-0.184-0.895-0.326-1.237-0.68c-0.408-0.372-0.874-0.66-1.347-0.937c-0.318-0.212-0.651-0.394-0.992-0.567
	c-0.26-0.134-0.527-0.255-0.758-0.451c-0.026-0.036-0.059-0.072-0.056-0.106c0.002-0.033,0.038-0.089,0.065-0.092
	c1.552-0.183,3.078,0.176,4.619,0.215c0.249-0.021,0.49-0.069,0.698-0.221c0.136-0.152,0.172-0.33,0.138-0.526
	c-1.017-1.255-2.437-1.891-3.86-2.522c-0.154-0.046-0.313-0.079-0.462-0.139c-6.299-2.517-12.712-3.101-19.275-1.138
	c-0.291-0.131-0.566-0.017-0.843,0.062c-0.354,0.096-0.667,0.337-1.111,0.447c0.301-0.871,0.495-1.628,0.856-2.323
	c0.143-0.362,0.383-0.695,0.315-1.116c-0.285-0.542-0.587-0.04-0.786,0.048c-1.526,0.679-2.774,1.789-4.114,2.756
	C33.239,6.08,32.95,6.434,32.582,6.63c-0.398,0.299-0.614,0.735-0.853,1.153c-0.196,0.39-0.579,0.594-0.874,0.886
	c-0.358,0.525-0.578,1.132-0.978,1.633c-0.146,0.241-0.309,0.467-0.518,0.665c-0.03,0.033-0.058,0.083-0.082,0.082
	c-0.074-0.005-0.04-0.055-0.007-0.158c0.388-1.185,0.803-2.358,1.427-3.446c0.198-0.381,0.447-0.731,0.657-1.104
	c0.151-0.278,0.383-0.493,0.575-0.738c0.156-0.269,0.446-0.489,0.307-0.864c-0.043-0.149,0.413-0.74-0.263-0.334
	C30.62,5.218,29.23,5.989,27.97,6.93c-1.625,1.214-3.281,2.448-4.009,4.488c-0.215,0.6-0.734,0.802-1.291,1.002
	c-1.799,0.646-3.829,0.881-4.974,2.738c-0.115,0.186-0.403,0.266-0.612,0.391c-2.723,1.623-5.79,2.527-8.538,4.099
	c-3.068,1.756-2.969,1.569-2.543,4.685c0.027,0.202,0.03,0.408,0.044,0.613c0.279,0.839,0.536,1.686,1.073,2.41
	c0.948,0.915,1.705,1.948,2.277,3.155c0.449,0.948,1.038,1.859,2.001,2.418c0.414,0.156,0.832,0.343,1.137-0.182
	c0.03-0.746-0.449-1.337-0.616-2.023c-0.098-0.266-0.184-0.534-0.266-0.805c-0.143-0.426-0.196-0.863-0.082-1.298
	c0.08-0.305,0.261-0.38,0.503-0.125c0.048,0.09,0.092,0.184,0.14,0.275c0.083,0.197,0.139,0.402,0.188,0.608
	c0.045,0.224,0.089,0.45,0.215,0.648c0.114,0.147,0.256,0.254,0.441,0.296c0.194,0.018,0.365-0.026,0.495-0.182
	c0.16-0.266,0.183-0.562,0.19-0.862c0.06-0.37-0.166-0.854,0.33-1.049c0.213-0.084,0.311,0.188,0.421,0.349
	c0.284,0.179,0.033,0.442,0.106,0.653c0.159,0.318,0.401,0.523,0.763,0.567c0.22-0.01,0.438-0.047,0.656-0.065
	c0.476,0.04,1.001-0.219,1.418,0.219c0.172,0.196,0.319,0.405,0.386,0.661c0.038,0.155,0.071,0.312,0.121,0.464
	c0.577,1.236,1.596,2.28,1.638,3.75c-0.354,0.246-0.69,0.524-1.066,0.728c-0.602,0.325-0.377,0.675-0.086,1.05
	c0.058,0.545-0.244,0.416-0.544,0.29c-0.383-0.179-0.532-0.706-1.052-0.722c-0.039,0.744,0.394,1.317,0.584,1.961
	c0.079,0.265,0.301,0.583,0.038,0.772c-0.282,0.202-0.473-0.21-0.726-0.3c-0.571-0.459-0.952-1.104-1.529-1.559
	c-0.274-0.39-0.406-0.902-0.949-1.092c0.351,2.188,1.071,4.241,1.908,6.26c0.207,0.34,0.369,0.695,0.456,1.084
	c-0.006,0.062,0.002,0.121,0.022,0.18c0.403,0.681,0.802,1.36,1.365,1.929c0.596,0.543,1.081,1.231,1.911,1.471
	c0.179,0.026,0.346-0.004,0.493-0.114c-0.156-0.896,0.599-0.572,0.987-0.738c0.11-0.139,0.152-0.299,0.151-0.473
	c-0.018-0.271-0.124-0.513-0.242-0.757c-0.04-0.071-0.11-0.184-0.086-0.209c0.128-0.131,0.169,0.062,0.256,0.084
	c0.206,0.179,0.402,0.379,0.679,0.457c0.118,0.015,0.233,0,0.344-0.041c0.294-0.205,0.306-0.485,0.216-0.797
	c-0.11-0.321-0.51-0.617-0.139-0.992c0.278-0.28,0.526,0.005,0.782,0.082c0.163,0.05,0.322,0.044,0.48-0.018
	c0.311-0.462,0.699-0.845,1.124-1.195c0.091-0.239,0.089-0.483,0.037-0.729c-0.148-1.437,0.27-2.111,1.546-2.512
	c0.592-0.184,1.194-0.263,1.817-0.273c1.353-0.023,2.71,0.109,4.06-0.088c0.117-0.045,0.223-0.105,0.317-0.189
	c0.111-0.989,0.613-1.227,1.488-0.773c-0.659,0.491-1.335,0.977-2.002,1.478c-0.125,0.104-0.246,0.208-0.364,0.314
	c-0.22,0.209-0.549,0.318-0.604,0.674c-1.19,1.397-2.696,2.529-3.569,4.195c-0.226,0.428-0.675,1.178-0.564,1.28
	c0.923,0.838-0.082,1.086-0.434,1.33c-0.926,0.642-1.67,1.461-2.42,2.269c-1.524,1.64-2.41,3.666-2.491,5.444
	c0.346,0.056,0.319-0.323,0.516-0.442c0.367-0.146,0.529-0.513,0.802-0.758c0.105-0.111,0.209-0.22,0.31-0.334
	c0.156-0.168,0.314-0.332,0.48-0.492c0.08-0.078,0.152-0.154,0.232-0.234c0.156,0.082-0.052,0.117-0.02,0.186
	c-0.086,0.17-0.176,0.344-0.269,0.514c-0.15,0.266-0.346,0.502-0.49,0.771c-0.097,0.185-0.183,0.371-0.249,0.57
	c-0.089,0.399-0.402,0.75-0.273,1.2c-0.34,1.386-0.821,2.75-0.703,4.211c0.263,0.324-0.149,0.873,0.37,1.113
	c0.19-0.021,0.33-0.125,0.443-0.271c0.149-0.248,0.228-0.527,0.351-0.787c0.275-0.552,0.499-1.127,0.733-1.695
	c0.785-1.717,1.85-3.217,3.387-4.447c-0.12,0.248-0.268,0.394-0.333,0.584c-0.133,0.354-0.265,0.709-0.455,1.039
	c-0.227,0.471-0.616,0.859-0.693,1.408c0.002,0.254-0.004,0.506-0.093,0.742c-0.112,0.451-0.377,0.877-0.224,1.371
	c-0.873,3.307-1.525,6.639-1.276,10.08c0.209,1.256,0.419,2.512,0.727,3.75l0.007-0.02c0.176,0.225,0.379,0.391,0.688,0.346
	c0.098-0.053,0.181-0.121,0.246-0.209c0.092-0.139,0.168-0.28,0.226-0.434c0.094-0.257,0.184-0.517,0.28-0.771
	c1.278-3.42,3.412-6.284,6.02-8.765c2.704-2.571,5.645-4.894,8.264-7.563c0.089-0.092,0.157-0.319,0.369-0.172
	c0.018,0.014-0.002,0.08-0.007,0.121c-0.006,0.039-0.015,0.079-0.018,0.116c-0.032,0.158-0.052,0.322-0.056,0.49
	c-0.008,0.158-0.014,0.32-0.018,0.482c-0.016,0.266-0.099,0.518-0.157,0.771c-0.053,0.266-0.064,0.527,0.045,0.785
	c-0.673,3.012-1.9,5.781-3.574,8.377c-0.224,0.348-0.946,0.646-0.472,1.295c0.276,0.131,0.53,0.015,0.788-0.063
	c0.35-0.136,0.645-0.369,0.973-0.539c0.187-0.103,0.378-0.198,0.559-0.312c0.227-0.151,0.453-0.311,0.682-0.457
	c1.154-0.916,2.289-1.834,3.235-2.992c2.454-3.008,4.272-6.391,6.003-9.834c0.046-0.09-0.004,0.072,0.034,0.097
	c-0.146,0.563-0.21,1.146-0.367,1.711c-0.119,0.752-0.569,1.392-0.715,2.136c-0.346,0.834-0.73,1.649-1.049,2.495
	c-0.162,0.541-0.444,1.029-0.674,1.541c-0.094,0.328-0.262,0.646-0.106,1c-0.165,1.144-0.797,2.192-0.681,3.392
	c0.199,0.223,0.376,0.045,0.557-0.033c0.262-0.169,0.534-0.324,0.775-0.523c0.2-0.174,0.413-0.326,0.64-0.463
	c1.537-0.914,2.873-2.127,4.436-3.002c0.175-0.145,0.314-0.326,0.465-0.494c1.85-1.611,3.805-3.102,5.554-4.842
	c1.653-1.645,2.963-3.562,4.479-5.326c0.083,0.172,0.044,0.357,0.048,0.541c0.01,0.408-0.13,0.799-0.186,1.195
	c-0.014,0.258,0.01,0.506,0.206,0.705c-0.179,1.613-0.322,3.229-0.158,4.854c0.05,0.104,0.131,0.141,0.242,0.114
	c0.238-0.112,0.415-0.301,0.601-0.479c0.185-0.186,0.366-0.373,0.518-0.586c0.124-0.181,0.256-0.354,0.397-0.521
	c1.429-1.765,2.174-3.854,2.883-5.963c0.314-0.976,0.514-1.976,0.779-2.957c0.04-0.478,0.124-0.945,0.253-1.406
	c0.418-2.562,0.286-5.144,0.307-7.717c0.001-0.146-0.001-0.285-0.008-0.429c-0.183-1.131-0.223-2.28-0.47-3.402
	c-0.02-0.192-0.033-0.384-0.064-0.574c-0.087-0.477-0.228-0.94-0.329-1.414c-0.108-0.323-0.173-0.655-0.262-0.984
	c-0.067-0.247-0.209-0.473-0.217-0.742c-0.008-0.078-0.076-0.157-0.064-0.202c0.004-0.015,0-0.016,0.002-0.025
	c0.012,0.009,0.026,0.018,0.06,0.019c0.035,0.114,0.058,0.244,0.111,0.362c0.041,0.086,0.088,0.169,0.146,0.245
	c0.06,0.079,0.122,0.158,0.192,0.231c0.236,0.262,0.41,0.563,0.558,0.88c0.113,0.226,0.198,0.463,0.28,0.701
	c0.068,0.196,0.151,0.386,0.241,0.572c0.115,0.242,0.222,0.488,0.364,0.716c0.341,0.452,0.584,0.991,1.129,1.257
	c0.12,0.025,0.24,0.024,0.359-0.003c0.12-0.048,0.216-0.128,0.284-0.24c0.063-0.113,0.11-0.235,0.137-0.362
	C71.165,34.366,71.052,33.304,71.071,32.252z M9.351,22.861c0-0.001,0-0.001,0-0.002C9.351,22.859,9.351,22.859,9.351,22.861
	C8.95,23.267,8.55,23.674,8.15,24.082l0,0h0.001c-0.072,0.545-0.534,0.803-0.941,1.146c0.106-0.309,0.212-0.618,0.318-0.928
	c0.257-0.935,0.81-1.566,1.798-1.749c0,0,0,0.001,0.001,0.001l0,0c0-0.482,0-0.965,0-1.637C10,21.711,10.149,22.302,9.351,22.861z
	 M23.15,23.37c-0.248-0.076-0.562,0.041-0.733-0.254v-0.001c-0.577-0.076-1.115-0.229-1.489-0.723
	c-0.246-0.054-0.495-0.113-0.467-0.445c0.08-0.998-0.218-2.015,0.082-3.002c0.14-0.009,0.28-0.018,0.42-0.027
	c0,0.961,0,1.922,0,2.883c0,0,0,0,0,0.001c0.497,0.319,0.992,0.638,1.489,0.956c0,0,0,0.001,0,0.002
	c0.238,0.114,0.478,0.228,0.716,0.342c0.359-0.096,0.579,0.185,0.877,0.32C23.715,23.675,23.426,23.629,23.15,23.37z M23.689,16.178
	c-0.001,0-0.003,0.001-0.004,0.001c-1.084,0.896-2.303,1.363-3.728,1.175c-0.434,0.124-0.781-0.056-1.231-0.408
	c1.693-0.37,3.12-1.316,4.836-1.283C24.315,15.678,24.091,15.897,23.689,16.178z"/>
<g>
	<g>
		<path fill="#282C37" d="M93.244,40.559c-0.617,1.035-1.425,1.781-2.424,2.238c-0.999,0.455-2.127,0.684-3.385,0.684
			c-1.431,0-2.689-0.274-3.774-0.832c-1.086-0.555-1.979-1.307-2.683-2.256c-0.703-0.949-1.234-2.042-1.591-3.272
			c-0.358-1.233-0.537-2.516-0.537-3.848c0-1.282,0.179-2.522,0.537-3.719c0.357-1.196,0.888-2.25,1.591-3.163
			s1.584-1.646,2.646-2.202c1.06-0.555,2.294-0.833,3.7-0.833c1.134,0,2.213,0.24,3.237,0.722c1.023,0.481,1.832,1.19,2.423,2.127
			h0.074v-9.62h5.254V43h-4.995v-2.441H93.244z M93.021,31.104c-0.148-0.727-0.401-1.369-0.758-1.924
			c-0.358-0.555-0.82-1.005-1.388-1.351c-0.568-0.345-1.283-0.518-2.146-0.518c-0.864,0-1.591,0.173-2.183,0.518
			c-0.592,0.346-1.067,0.802-1.424,1.369c-0.358,0.567-0.617,1.215-0.777,1.942c-0.161,0.728-0.241,1.486-0.241,2.275
			c0,0.74,0.086,1.48,0.259,2.22c0.172,0.74,0.45,1.4,0.833,1.979c0.383,0.579,0.863,1.048,1.443,1.405
			c0.579,0.356,1.276,0.537,2.09,0.537c0.863,0,1.584-0.175,2.165-0.521c0.579-0.347,1.042-0.808,1.388-1.388
			c0.345-0.579,0.592-1.239,0.74-1.979c0.148-0.74,0.222-1.504,0.222-2.294C93.244,32.591,93.169,31.833,93.021,31.104z"/>
		<path fill="#282C37" d="M102.419,20.911v-4.329h5.254v4.329H102.419z M107.673,23.871V43h-5.254V23.871H107.673z"/>
		<path fill="#282C37" d="M117.441,38.412c0.789,0.765,1.924,1.146,3.404,1.146c1.061,0,1.973-0.267,2.738-0.795
			c0.764-0.533,1.233-1.095,1.406-1.687h4.625c-0.74,2.294-1.875,3.937-3.404,4.921c-1.53,0.984-3.38,1.479-5.55,1.479
			c-1.505,0-2.861-0.238-4.07-0.722c-1.209-0.479-2.233-1.166-3.071-2.054c-0.839-0.889-1.486-1.948-1.943-3.182
			c-0.457-1.233-0.684-2.59-0.684-4.07c0-1.43,0.234-2.762,0.703-3.996c0.468-1.233,1.134-2.3,1.998-3.201
			c0.863-0.9,1.893-1.609,3.089-2.127c1.196-0.518,2.522-0.777,3.978-0.777c1.628,0,3.046,0.314,4.255,0.943
			c1.208,0.629,2.201,1.474,2.979,2.535c0.777,1.061,1.337,2.27,1.683,3.626c0.345,1.357,0.468,2.775,0.37,4.255h-13.801
			C116.22,36.414,116.651,37.648,117.441,38.412z M123.379,28.348c-0.629-0.69-1.585-1.036-2.868-1.036
			c-0.839,0-1.535,0.142-2.09,0.425c-0.555,0.284-0.999,0.636-1.332,1.055c-0.333,0.42-0.568,0.864-0.703,1.332
			c-0.136,0.469-0.216,0.888-0.24,1.258h8.547C124.446,30.05,124.008,29.039,123.379,28.348z"/>
		<path fill="#282C37" d="M151.129,44.406c-0.21,0.986-0.66,1.904-1.351,2.756c-0.69,0.852-1.689,1.572-2.997,2.165
			c-1.308,0.592-3.059,0.888-5.253,0.888c-0.938,0-1.894-0.117-2.868-0.352c-0.975-0.234-1.863-0.598-2.664-1.092
			c-0.802-0.494-1.468-1.129-1.998-1.904c-0.531-0.777-0.833-1.709-0.906-2.794h5.217c0.246,0.985,0.728,1.671,1.443,2.054
			c0.715,0.382,1.542,0.573,2.479,0.573c1.48,0,2.559-0.444,3.237-1.332c0.678-0.888,1.005-2.011,0.98-3.367v-2.517h-0.073
			c-0.568,1.012-1.376,1.758-2.424,2.238c-1.049,0.479-2.152,0.723-3.312,0.723c-1.431,0-2.664-0.254-3.7-0.76
			c-1.036-0.504-1.887-1.195-2.553-2.071c-0.666-0.875-1.153-1.899-1.461-3.071c-0.309-1.171-0.463-2.411-0.463-3.718
			c0-1.233,0.179-2.424,0.537-3.571c0.357-1.147,0.882-2.158,1.573-3.034c0.69-0.875,1.547-1.573,2.571-2.091
			c1.023-0.518,2.202-0.777,3.534-0.777c1.258,0,2.361,0.235,3.312,0.703c0.949,0.469,1.745,1.258,2.387,2.368h0.073V23.87h4.995
			v17.907C151.443,42.544,151.339,43.419,151.129,44.406z M143.933,38.042c0.567-0.296,1.036-0.69,1.406-1.184
			c0.37-0.493,0.647-1.054,0.832-1.684c0.186-0.629,0.277-1.289,0.277-1.979c0-0.789-0.073-1.535-0.222-2.238
			c-0.147-0.703-0.395-1.326-0.74-1.869c-0.346-0.542-0.802-0.974-1.369-1.295c-0.567-0.32-1.282-0.481-2.146-0.481
			c-0.74,0-1.375,0.148-1.906,0.444c-0.531,0.296-0.975,0.697-1.332,1.203c-0.358,0.506-0.617,1.086-0.777,1.739
			c-0.161,0.654-0.24,1.338-0.24,2.054c0,0.691,0.067,1.375,0.203,2.054c0.136,0.679,0.37,1.289,0.703,1.832
			s0.771,0.987,1.313,1.332c0.542,0.346,1.221,0.518,2.035,0.518C142.711,38.486,143.365,38.338,143.933,38.042z"/>
		<path fill="#282C37" d="M155.772,29.292c0.468-1.245,1.134-2.306,1.998-3.182c0.862-0.875,1.898-1.554,3.107-2.035
			c1.208-0.481,2.564-0.722,4.07-0.722c1.504,0,2.867,0.24,4.088,0.722c1.222,0.481,2.264,1.16,3.127,2.035
			c0.863,0.876,1.529,1.937,1.998,3.182c0.468,1.246,0.703,2.633,0.703,4.163c0,1.53-0.235,2.911-0.703,4.144
			c-0.469,1.233-1.135,2.29-1.998,3.165s-1.905,1.547-3.127,2.016c-1.221,0.471-2.584,0.703-4.088,0.703
			c-1.506,0-2.862-0.232-4.07-0.703c-1.209-0.469-2.245-1.141-3.107-2.016c-0.864-0.875-1.53-1.931-1.998-3.165
			c-0.469-1.233-0.703-2.614-0.703-4.144C155.069,31.925,155.304,30.538,155.772,29.292z M160.545,35.692
			c0.148,0.728,0.4,1.382,0.76,1.961c0.356,0.58,0.832,1.042,1.424,1.388s1.332,0.518,2.223,0.518c0.888,0,1.634-0.172,2.236-0.518
			c0.604-0.346,1.084-0.808,1.442-1.388c0.356-0.579,0.61-1.233,0.759-1.961c0.147-0.727,0.223-1.474,0.223-2.238
			c0-0.764-0.072-1.517-0.223-2.257c-0.146-0.74-0.4-1.393-0.759-1.961c-0.358-0.567-0.839-1.029-1.442-1.387
			c-0.604-0.357-1.352-0.537-2.236-0.537s-1.631,0.179-2.223,0.537s-1.064,0.82-1.424,1.387c-0.359,0.568-0.611,1.221-0.76,1.961
			c-0.146,0.74-0.222,1.493-0.222,2.257C160.323,34.219,160.396,34.965,160.545,35.692z"/>
		<path fill="#282C37" d="M181.6,23.871v2.812h0.073c1.431-2.17,3.49-3.256,6.179-3.256c1.187,0,2.258,0.247,3.219,0.74
			c0.965,0.494,1.644,1.332,2.035,2.516c0.645-1.036,1.485-1.837,2.535-2.405c1.049-0.567,2.201-0.851,3.459-0.851
			c0.963,0,1.832,0.105,2.608,0.315s1.442,0.536,1.998,0.98c0.556,0.444,0.985,1.017,1.295,1.72c0.31,0.703,0.463,1.548,0.463,2.535
			V43h-3.146V30.457c0-0.592-0.051-1.147-0.147-1.665c-0.101-0.518-0.284-0.968-0.556-1.351c-0.271-0.382-0.647-0.685-1.129-0.906
			c-0.48-0.222-1.104-0.333-1.868-0.333c-1.554,0-2.774,0.444-3.663,1.332c-0.889,0.888-1.332,2.072-1.332,3.552V43h-3.145V30.457
			c0-0.616-0.059-1.184-0.168-1.702s-0.304-0.968-0.572-1.351c-0.271-0.382-0.635-0.678-1.092-0.888
			c-0.457-0.209-1.043-0.314-1.758-0.314c-0.912,0-1.695,0.185-2.352,0.555c-0.654,0.37-1.186,0.814-1.594,1.332
			c-0.404,0.518-0.7,1.055-0.889,1.61c-0.185,0.555-0.275,1.017-0.275,1.387V43h-3.146V23.871H181.6z"/>
		<path fill="#282C37" d="M227.146,42.926c-0.543,0.32-1.297,0.481-2.258,0.481c-0.813,0-1.464-0.229-1.943-0.685
			c-0.479-0.457-0.721-1.203-0.721-2.238c-0.863,1.035-1.869,1.781-3.018,2.238c-1.146,0.453-2.389,0.685-3.719,0.685
			c-0.864,0-1.686-0.099-2.463-0.296c-0.774-0.197-1.447-0.506-2.018-0.926c-0.566-0.418-1.018-0.97-1.351-1.646
			c-0.333-0.678-0.499-1.498-0.499-2.46c0-1.085,0.186-1.973,0.555-2.664c0.37-0.69,0.857-1.251,1.463-1.684
			c0.604-0.431,1.295-0.758,2.071-0.98s1.571-0.407,2.386-0.555c0.863-0.172,1.684-0.302,2.461-0.388s1.461-0.209,2.055-0.37
			c0.594-0.16,1.062-0.394,1.404-0.703c0.346-0.308,0.521-0.758,0.521-1.351c0-0.69-0.133-1.245-0.391-1.665
			c-0.26-0.42-0.592-0.74-1-0.962c-0.406-0.222-0.86-0.37-1.369-0.444c-0.506-0.074-1.004-0.111-1.498-0.111
			c-1.33,0-2.439,0.253-3.328,0.758c-0.889,0.506-1.368,1.461-1.442,2.868H209.9c0.051-1.184,0.298-2.183,0.74-2.997
			s1.034-1.474,1.774-1.979c0.739-0.505,1.585-0.87,2.534-1.092c0.949-0.222,1.967-0.333,3.053-0.333
			c0.863,0,1.723,0.062,2.57,0.185c0.853,0.124,1.621,0.375,2.312,0.757c0.688,0.382,1.244,0.917,1.663,1.606
			c0.421,0.689,0.63,1.588,0.63,2.695v9.821c0,0.739,0.043,1.28,0.131,1.625c0.086,0.345,0.375,0.517,0.869,0.517
			c0.271,0,0.592-0.049,0.963-0.146v2.439H227.146z M222.039,33.121c-0.395,0.295-0.913,0.509-1.555,0.645
			c-0.644,0.135-1.312,0.246-2.019,0.331c-0.7,0.086-1.409,0.185-2.128,0.295c-0.716,0.11-1.354,0.289-1.924,0.534
			c-0.566,0.245-1.027,0.595-1.391,1.049c-0.355,0.454-0.533,1.074-0.533,1.859c0,0.516,0.104,0.951,0.312,1.307
			c0.209,0.356,0.479,0.646,0.812,0.865c0.333,0.223,0.722,0.381,1.166,0.479c0.443,0.101,0.912,0.146,1.406,0.146
			c1.035,0,1.924-0.142,2.664-0.423c0.736-0.282,1.344-0.64,1.812-1.067c0.47-0.43,0.813-0.896,1.036-1.396
			c0.222-0.503,0.333-0.976,0.333-1.418v-3.203L222.039,33.121L222.039,33.121z"/>
		<path fill="#282C37" d="M232.916,23.871v4.033h0.074c0.765-1.554,1.701-2.701,2.812-3.441c1.11-0.74,2.517-1.085,4.22-1.036v3.33
			c-1.258,0-2.332,0.173-3.221,0.518c-0.888,0.346-1.604,0.851-2.146,1.517c-0.54,0.666-0.938,1.474-1.184,2.423
			c-0.246,0.95-0.369,2.042-0.369,3.275V43h-3.146V23.871H232.916z"/>
		<path fill="#282C37" d="M242.573,20.43v-3.848h3.146v3.848H242.573z M245.719,23.871V43h-3.146V23.871H245.719z"/>
		<path fill="#282C37" d="M267.548,42.926c-0.543,0.32-1.296,0.481-2.258,0.481c-0.813,0-1.461-0.229-1.942-0.685
			c-0.479-0.457-0.722-1.203-0.722-2.238c-0.862,1.035-1.868,1.781-3.015,2.238c-1.147,0.453-2.387,0.685-3.719,0.685
			c-0.865,0-1.687-0.099-2.461-0.296c-0.776-0.197-1.449-0.506-2.02-0.926c-0.564-0.418-1.02-0.97-1.354-1.646
			c-0.332-0.678-0.498-1.498-0.498-2.46c0-1.085,0.187-1.973,0.557-2.664c0.369-0.69,0.855-1.251,1.462-1.684
			c0.604-0.431,1.295-0.758,2.069-0.98c0.777-0.222,1.572-0.407,2.389-0.555c0.861-0.172,1.686-0.302,2.461-0.388
			s1.461-0.209,2.057-0.37c0.592-0.16,1.06-0.394,1.402-0.703c0.348-0.308,0.521-0.758,0.521-1.351c0-0.69-0.131-1.245-0.392-1.665
			c-0.259-0.42-0.592-0.74-0.999-0.962c-0.404-0.222-0.861-0.37-1.367-0.444c-0.508-0.074-1.007-0.111-1.498-0.111
			c-1.332,0-2.441,0.253-3.33,0.758c-0.89,0.506-1.369,1.461-1.442,2.868h-3.146c0.049-1.184,0.297-2.183,0.737-2.997
			c0.442-0.814,1.036-1.474,1.774-1.979c0.74-0.505,1.587-0.87,2.533-1.092c0.951-0.222,1.97-0.333,3.056-0.333
			c0.86,0,1.721,0.062,2.569,0.185c0.854,0.124,1.621,0.375,2.312,0.757c0.689,0.382,1.246,0.917,1.665,1.606
			c0.42,0.689,0.629,1.588,0.629,2.695v9.821c0,0.739,0.043,1.28,0.13,1.625c0.088,0.345,0.376,0.517,0.869,0.517
			c0.271,0,0.593-0.049,0.963-0.146v2.439H267.548z M262.441,33.121c-0.396,0.295-0.914,0.509-1.555,0.645
			c-0.644,0.135-1.312,0.246-2.019,0.331c-0.703,0.086-1.412,0.185-2.128,0.295c-0.719,0.11-1.354,0.289-1.926,0.534
			c-0.566,0.245-1.028,0.595-1.389,1.049c-0.357,0.454-0.535,1.074-0.535,1.859c0,0.516,0.104,0.951,0.313,1.307
			c0.209,0.356,0.479,0.646,0.813,0.865c0.332,0.223,0.722,0.381,1.166,0.479c0.441,0.101,0.912,0.146,1.404,0.146
			c1.035,0,1.926-0.142,2.663-0.423c0.739-0.282,1.347-0.64,1.812-1.067c0.471-0.43,0.813-0.896,1.037-1.396
			c0.223-0.503,0.332-0.976,0.332-1.418v-3.203L262.441,33.121L262.441,33.121z"/>
		<path fill="#282C37" d="M273.432,23.871v3.034h0.073c1.308-2.318,3.379-3.478,6.216-3.478c1.258,0,2.307,0.173,3.146,0.518
			c0.839,0.346,1.518,0.827,2.033,1.443c0.521,0.617,0.884,1.35,1.094,2.201c0.209,0.851,0.312,1.794,0.312,2.831V43h-3.146V30.05
			c0-1.184-0.348-2.121-1.035-2.812c-0.689-0.69-1.643-1.036-2.852-1.036c-0.961,0-1.793,0.148-2.496,0.444
			c-0.702,0.296-1.289,0.716-1.758,1.258c-0.471,0.543-0.819,1.178-1.057,1.906c-0.232,0.728-0.352,1.523-0.352,2.386V43h-3.146
			V23.871H273.432z"/>
		<path fill="#282C37" d="M290.598,29.514c0.396-1.221,0.986-2.281,1.776-3.182c0.789-0.9,1.763-1.609,2.923-2.127
			c1.159-0.518,2.491-0.777,3.996-0.777c1.529,0,2.867,0.259,4.016,0.777c1.146,0.518,2.113,1.227,2.903,2.127
			c0.789,0.901,1.381,1.961,1.776,3.182c0.394,1.221,0.592,2.534,0.592,3.94c0,1.406-0.198,2.713-0.592,3.922
			c-0.396,1.209-0.987,2.263-1.776,3.163c-0.79,0.9-1.758,1.604-2.903,2.109s-2.483,0.759-4.016,0.759
			c-1.505,0-2.837-0.253-3.996-0.759c-1.16-0.506-2.134-1.209-2.923-2.109c-0.79-0.9-1.382-1.954-1.776-3.163
			c-0.395-1.208-0.592-2.516-0.592-3.922C290.006,32.048,290.203,30.734,290.598,29.514z M293.798,36.543
			c0.31,0.901,0.734,1.653,1.277,2.257c0.542,0.604,1.178,1.067,1.905,1.388c0.727,0.321,1.496,0.48,2.312,0.48
			s1.585-0.16,2.312-0.48c0.729-0.318,1.36-0.783,1.903-1.388c0.542-0.604,0.968-1.356,1.276-2.257
			c0.309-0.9,0.463-1.93,0.463-3.089c0-1.159-0.154-2.189-0.463-3.09c-0.311-0.9-0.734-1.658-1.276-2.275
			c-0.543-0.616-1.178-1.085-1.903-1.406c-0.729-0.32-1.498-0.481-2.312-0.481s-1.585,0.161-2.312,0.481
			c-0.729,0.321-1.363,0.79-1.905,1.406c-0.543,0.617-0.97,1.375-1.277,2.275c-0.309,0.901-0.462,1.931-0.462,3.09
			C293.336,34.614,293.489,35.644,293.798,36.543z"/>
	</g>
</g>
<g opacity="0.5">
	<g>
		<path fill="#282C37" d="M237.263,51.958c0.499,0,0.918,0.078,1.26,0.232c0.339,0.156,0.613,0.36,0.822,0.611
			c0.209,0.253,0.358,0.539,0.449,0.863c0.092,0.323,0.137,0.653,0.137,0.988c0,0.462-0.076,0.865-0.225,1.21
			c-0.149,0.343-0.358,0.626-0.626,0.845c-0.268,0.217-0.593,0.383-0.974,0.49c-0.38,0.109-0.803,0.164-1.266,0.164h-1.047v3.59
			h-1.961v-8.994H237.263z M236.665,56.027c0.389,0,0.703-0.108,0.945-0.327c0.238-0.219,0.36-0.559,0.36-1.021
			c0-0.453-0.105-0.797-0.313-1.033c-0.209-0.234-0.558-0.352-1.048-0.352h-0.815v2.733H236.665z"/>
		<path fill="#282C37" d="M242.72,51.958v2.91h0.027c0.363-0.58,0.958-0.869,1.783-0.869c0.598,0,1.059,0.15,1.383,0.453
			c0.32,0.301,0.481,0.793,0.481,1.475v5.025h-1.878v-4.674c0-0.352-0.062-0.599-0.189-0.738c-0.128-0.137-0.332-0.207-0.613-0.207
			c-0.663,0-0.994,0.375-0.994,1.122v4.497h-1.877v-8.994H242.72z"/>
		<path fill="#282C37" d="M249.552,60.952h-1.796v-1.967h1.796V60.952z"/>
		<path fill="#282C37" d="M254.274,51.958c0.682,0,1.229,0.103,1.646,0.309c0.419,0.207,0.743,0.498,0.974,0.881
			c0.232,0.383,0.39,0.844,0.471,1.381c0.082,0.538,0.123,1.139,0.123,1.799c0,0.791-0.054,1.477-0.158,2.061
			c-0.104,0.586-0.282,1.066-0.537,1.442c-0.254,0.378-0.594,0.661-1.021,0.845c-0.426,0.184-0.967,0.277-1.617,0.277h-3.09v-8.994
			H254.274z M253.894,59.618c0.344,0,0.621-0.056,0.829-0.164c0.21-0.11,0.376-0.291,0.497-0.543
			c0.123-0.253,0.205-0.584,0.244-0.996c0.041-0.409,0.062-0.922,0.062-1.536c0-0.512-0.02-0.961-0.055-1.348
			c-0.035-0.386-0.111-0.708-0.225-0.963c-0.114-0.258-0.281-0.45-0.502-0.578c-0.223-0.132-0.521-0.196-0.893-0.196h-0.83v6.324
			H253.894z"/>
		<path fill="#282C37" d="M260.63,60.952h-1.797v-1.967h1.797V60.952z"/>
		<path fill="#282C37" d="M281.496,51.958l1.387,6.349h0.03l1.401-6.349h2.899v8.994h-1.798v-7.182h-0.026l-1.729,7.182h-1.524
			l-1.729-7.182h-0.027v7.182h-1.796v-8.994H281.496z"/>
		<path fill="#282C37" d="M290.465,60.952h-1.796v-1.967h1.796V60.952z"/>
		<path fill="#282C37" d="M293.458,58.407c0,0.211,0.02,0.4,0.055,0.574c0.037,0.172,0.105,0.317,0.204,0.435
			c0.1,0.115,0.234,0.21,0.402,0.276c0.167,0.068,0.379,0.101,0.632,0.101c0.301,0,0.57-0.089,0.811-0.271
			c0.241-0.181,0.362-0.46,0.362-0.836c0-0.202-0.031-0.376-0.09-0.524c-0.06-0.146-0.156-0.279-0.293-0.396
			c-0.136-0.116-0.315-0.225-0.538-0.32s-0.496-0.196-0.822-0.297c-0.435-0.133-0.812-0.279-1.13-0.439
			c-0.317-0.162-0.583-0.348-0.795-0.562c-0.215-0.213-0.371-0.46-0.472-0.742c-0.099-0.281-0.149-0.607-0.149-0.978
			c0-0.89,0.268-1.552,0.804-1.989c0.535-0.436,1.27-0.654,2.205-0.654c0.436,0,0.836,0.043,1.204,0.133
			c0.368,0.089,0.685,0.229,0.953,0.428c0.268,0.195,0.477,0.449,0.624,0.754c0.149,0.307,0.226,0.674,0.226,1.105v0.25h-1.877
			c0-0.428-0.083-0.758-0.246-0.989c-0.163-0.23-0.435-0.347-0.817-0.347c-0.216,0-0.397,0.031-0.543,0.089
			s-0.261,0.136-0.348,0.233c-0.087,0.097-0.146,0.207-0.177,0.332c-0.032,0.129-0.047,0.258-0.047,0.392
			c0,0.278,0.063,0.512,0.191,0.699c0.126,0.188,0.398,0.364,0.814,0.524l1.512,0.603c0.372,0.151,0.675,0.31,0.913,0.472
			c0.233,0.164,0.423,0.343,0.562,0.529c0.142,0.191,0.238,0.396,0.292,0.625c0.058,0.227,0.083,0.479,0.083,0.756
			c0,0.949-0.297,1.641-0.892,2.072c-0.595,0.433-1.423,0.647-2.484,0.647c-1.105,0-1.897-0.223-2.373-0.667
			c-0.478-0.445-0.716-1.083-0.716-1.915v-0.364h1.959V58.407z"/>
		<path fill="#282C37" d="M302.38,56.128c-0.021-0.16-0.062-0.306-0.122-0.436c-0.06-0.129-0.144-0.234-0.253-0.315
			c-0.106-0.08-0.253-0.119-0.434-0.119c-0.229,0-0.413,0.05-0.56,0.146c-0.144,0.096-0.253,0.24-0.326,0.43
			c-0.071,0.188-0.122,0.427-0.149,0.716c-0.026,0.29-0.04,0.632-0.04,1.026c0,0.42,0.014,0.78,0.04,1.079
			c0.027,0.298,0.078,0.542,0.149,0.735c0.073,0.193,0.176,0.334,0.307,0.422c0.131,0.089,0.302,0.134,0.511,0.134
			c0.317,0,0.549-0.128,0.692-0.379c0.146-0.251,0.219-0.655,0.219-1.208h1.796c0,0.889-0.215,1.568-0.646,2.035
			c-0.432,0.463-1.145,0.696-2.142,0.696c-0.473,0-0.884-0.052-1.232-0.157c-0.35-0.105-0.64-0.295-0.872-0.566
			c-0.23-0.271-0.404-0.639-0.524-1.096c-0.117-0.459-0.176-1.027-0.176-1.707c0-0.695,0.073-1.273,0.217-1.73
			c0.146-0.459,0.351-0.824,0.614-1.097c0.262-0.272,0.575-0.466,0.938-0.574c0.361-0.108,0.762-0.163,1.198-0.163
			c0.871,0,1.525,0.235,1.965,0.705c0.44,0.471,0.66,1.109,0.66,1.916h-1.796C302.414,56.451,302.403,56.286,302.38,56.128z"/>
		<path fill="#282C37" d="M307.096,60.952H305.3v-1.967h1.796V60.952z"/>
	</g>
	<circle fill="#282C37" cx="269.67" cy="56.896" r="1.867"/>
</g>
</svg>
